<svg xmlns="http://www.w3.org/2000/svg" viewBox="0 0 760 262" role="img" aria-label="OWASP LLM Top 10 (2025) — incident coverage" font-family="system-ui,-apple-system,Segoe UI,Roboto,sans-serif" font-size="11">
<rect x="0" y="0" width="100%" height="100%" fill="white"/>
<text x="12" y="18" font-weight="600">OWASP LLM Top 10 (2025) — incident coverage</text>
<text x="212" y="47" text-anchor="end" fill="#333">LLM01 · Prompt Injection</text>
<rect x="220" y="36" width="55.4" height="14" fill="#0a58ca" rx="2"><title>Prompt Injection: 378</title></rect>
<text x="281.4" y="47" fill="#666">378</text>
<text x="212" y="69" text-anchor="end" fill="#333">LLM02 · Sensitive Information Disclosure</text>
<rect x="220" y="58" width="118.8" height="14" fill="#0a58ca" rx="2"><title>Sensitive Information Disclosure: 810</title></rect>
<text x="344.8" y="69" fill="#666">810</text>
<text x="212" y="91" text-anchor="end" fill="#333">LLM03 · Supply Chain</text>
<rect x="220" y="80" width="285.4" height="14" fill="#0a58ca" rx="2"><title>Supply Chain: 1,946</title></rect>
<text x="511.4" y="91" fill="#666">1,946</text>
<text x="212" y="113" text-anchor="end" fill="#333">LLM04 · Data and Model Poisoning</text>
<rect x="220" y="102" width="18.6" height="14" fill="#0a58ca" rx="2"><title>Data and Model Poisoning: 127</title></rect>
<text x="244.6" y="113" fill="#666">127</text>
<text x="212" y="135" text-anchor="end" fill="#333">LLM05 · Improper Output Handling</text>
<rect x="220" y="124" width="480.0" height="14" fill="#0a58ca" rx="2"><title>Improper Output Handling: 3,273</title></rect>
<text x="706.0" y="135" fill="#666">3,273</text>
<text x="212" y="157" text-anchor="end" fill="#333">LLM06 · Excessive Agency</text>
<rect x="220" y="146" width="112.9" height="14" fill="#0a58ca" rx="2"><title>Excessive Agency: 770</title></rect>
<text x="338.9" y="157" fill="#666">770</text>
<text x="212" y="179" text-anchor="end" fill="#333">LLM07 · System Prompt Leakage</text>
<rect x="220" y="168" width="106.2" height="14" fill="#0a58ca" rx="2"><title>System Prompt Leakage: 724</title></rect>
<text x="332.2" y="179" fill="#666">724</text>
<text x="212" y="201" text-anchor="end" fill="#333">LLM08 · Vector and Embedding Weaknesses</text>
<rect x="220" y="190" width="3.7" height="14" fill="#0a58ca" rx="2"><title>Vector and Embedding Weaknesses: 25</title></rect>
<text x="229.7" y="201" fill="#666">25</text>
<text x="212" y="223" text-anchor="end" fill="#333">LLM09 · Misinformation</text>
<rect x="220" y="212" width="318.5" height="14" fill="#0a58ca" rx="2"><title>Misinformation: 2,172</title></rect>
<text x="544.5" y="223" fill="#666">2,172</text>
<text x="212" y="245" text-anchor="end" fill="#333">LLM10 · Unbounded Consumption</text>
<rect x="220" y="234" width="6.9" height="14" fill="#0a58ca" rx="2"><title>Unbounded Consumption: 47</title></rect>
<text x="232.9" y="245" fill="#666">47</text>
</svg>
